<?xml version="1.0" encoding="utf-8"?>
<!-- Generator: Adobe Illustrator 16.0.0, SVG Export Plug-In . SVG Version: 6.00 Build 0)  -->
<!DOCTYPE svg PUBLIC "-//W3C//DTD SVG 1.1//EN" "http://www.w3.org/Graphics/SVG/1.1/DTD/svg11.dtd">
<svg version="1.1" id="圖層_1" xmlns="http://www.w3.org/2000/svg" xmlns:xlink="http://www.w3.org/1999/xlink" x="0px" y="0px"
	 width="240px" height="240px" viewBox="0 0 240 240" enable-background="new 0 0 240 240" xml:space="preserve">
<ellipse cx="117" cy="121.75" rx="88.5" ry="93.25"/>
<path fill="#C4C4C4" d="M120,24c-53.016,0-96,42.984-96,96c0,40.672,25.304,75.408,61.016,89.393
	c-0.84-7.593-1.6-19.248,0.336-27.537c1.744-7.485,11.256-47.719,11.256-47.719s-2.872-5.753-2.872-14.249
	c0-13.352,7.736-23.312,17.368-23.312c8.192,0,12.144,6.152,12.144,13.52c0,8.24-5.24,20.552-7.952,31.96
	c-2.264,9.56,4.792,17.352,14.216,17.352c17.064,0,30.176-17.992,30.176-43.96c0-22.984-16.512-39.056-40.096-39.056
	c-27.312,0-43.344,20.488-43.344,41.664c0,8.249,3.176,17.096,7.144,21.913c0.784,0.951,0.896,1.783,0.664,2.752
	c-0.728,3.031-2.344,9.551-2.664,10.887c-0.416,1.763-1.392,2.129-3.208,1.281c-11.992-5.584-19.488-23.113-19.488-37.193
	c0-30.28,22-58.096,63.432-58.096c33.304,0,59.185,23.728,59.185,55.448c0,33.089-20.865,59.712-49.814,59.712
	c-9.729,0-18.872-5.056-22-11.023c0,0-4.816,18.328-5.984,22.824c-2.168,8.336-8.016,18.791-11.936,25.168
	C100.56,214.496,110.104,216,120,216c53.016,0,96-42.984,96-96C216,66.984,173.016,24,120,24z"/>
</svg>
