<?xml version="1.0" encoding="utf-8"?>
<!-- Generator: Adobe Illustrator 16.0.0, SVG Export Plug-In . SVG Version: 6.00 Build 0)  -->
<!DOCTYPE svg PUBLIC "-//W3C//DTD SVG 1.1//EN" "http://www.w3.org/Graphics/SVG/1.1/DTD/svg11.dtd">
<svg version="1.1" id="圖層_1" xmlns="http://www.w3.org/2000/svg" xmlns:xlink="http://www.w3.org/1999/xlink" x="0px" y="0px"
	 width="240px" height="240px" viewBox="0 0 240 240" enable-background="new 0 0 240 240" xml:space="preserve">
<rect x="73.5" y="51.5" width="87" height="149"/>
<path fill="#C4C4C4" d="M120,24c-53.016,0-96,42.984-96,96c0,53.016,42.984,96,96,96c53.016,0,96-42.984,96-96
	C216,66.984,173.016,24,120,24z M153.448,88h-13.832C131.008,88,128,92.544,128,101.744V112h25.232l-3.424,24H128v63.6
	c-2.632,0.256-5.296,0.4-8,0.4c-5.48,0-10.832-0.561-16-1.607V136H80v-24h24V99.112C104,74.712,115.888,64,136.168,64
	c9.712,0,14.848,0.72,17.28,1.048V88z"/>
</svg>
