<?xml version="1.0" encoding="utf-8"?>
<!-- Generator: Adobe Illustrator 16.0.0, SVG Export Plug-In . SVG Version: 6.00 Build 0)  -->
<!DOCTYPE svg PUBLIC "-//W3C//DTD SVG 1.1//EN" "http://www.w3.org/Graphics/SVG/1.1/DTD/svg11.dtd">
<svg version="1.1" id="圖層_1" xmlns="http://www.w3.org/2000/svg" xmlns:xlink="http://www.w3.org/1999/xlink" x="0px" y="0px"
	 width="240px" height="240px" viewBox="0 0 240 240" enable-background="new 0 0 240 240" xml:space="preserve">
<rect x="58.5" y="56.5" width="129.885" height="125.841"/>
<path fill="#C4C4C4" d="M120,24c-53.016,0-96,42.984-96,96c0,53.016,42.984,96,96,96c53.016,0,96-42.984,96-96
	C216,66.984,173.016,24,120,24z M171.712,100.28c0.048,1.064,0.072,2.12,0.072,3.176c0,32.544-24.761,70.048-70.048,70.048
	c-13.912,0-26.848-4.072-37.736-11.064c1.928,0.232,3.888,0.336,5.88,0.336c11.544,0,22.152-3.928,30.568-10.543
	c-10.776-0.201-19.872-7.318-23-17.096c1.504,0.287,3.048,0.439,4.632,0.439c2.248,0,4.432-0.305,6.488-0.864
	c-11.264-2.256-19.752-12.208-19.752-24.136c0-0.104,0-0.208,0-0.312c3.32,1.848,7.112,2.952,11.152,3.08
	c-6.6-4.408-10.952-11.952-10.952-20.488c0-4.52,1.208-8.752,3.328-12.376c12.144,14.896,30.288,24.704,50.744,25.728
	c-0.416-1.8-0.632-3.68-0.632-5.608c0-13.592,11.024-24.624,24.616-24.624c7.08,0,13.48,2.992,17.968,7.776
	c5.608-1.112,10.88-3.152,15.64-5.976c-1.84,5.752-5.744,10.568-10.832,13.624c4.979-0.592,9.721-1.912,14.146-3.872
	C180.704,92.472,176.536,96.8,171.712,100.28z"/>
</svg>
