<?xml version="1.0" encoding="utf-8"?>
<!-- Generator: Adobe Illustrator 16.0.0, SVG Export Plug-In . SVG Version: 6.00 Build 0)  -->
<!DOCTYPE svg PUBLIC "-//W3C//DTD SVG 1.1//EN" "http://www.w3.org/Graphics/SVG/1.1/DTD/svg11.dtd">
<svg version="1.1" id="_x32_" xmlns="http://www.w3.org/2000/svg" xmlns:xlink="http://www.w3.org/1999/xlink" x="0px" y="0px"
	 width="420px" height="420px" viewBox="0 0 420 420" enable-background="new 0 0 420 420" xml:space="preserve">
<g>
	<path fill="#6D6D6D" d="M276.705,100.492l-1.435,0.015c-26.545,0.484-42.25,16.189-52.774,31.66
		c-1.913,2.864-4.785,4.7-7.649,4.773c-2.872-0.074-5.742-1.91-7.655-4.773c-10.525-15.471-26.231-31.176-52.776-31.66l-1.435-0.015
		c-34.272,0-65.051,25.423-65.051,80.622c0,55.162,47.432,94.305,76.688,114.23c19.219,13.158,43.372,22.804,43.372,22.804
		c2.228,0.716,5.664,1.357,6.857,1.357c1.188,0,4.624-0.642,6.851-1.357c0,0,24.153-9.646,43.374-22.804
		c29.254-19.924,76.685-59.067,76.685-114.23C341.756,125.92,310.968,100.492,276.705,100.492z M256.334,282.59
		c-15.942,10.912-36.118,19.452-39.793,20.97l-1.697,0.384l-1.708-0.384c-3.662-1.515-23.766-10.001-39.817-20.995
		c-46.407-31.602-69.932-65.734-69.932-101.451c0-21.776,5.427-39.287,15.687-50.647c10.843-12,24.425-14.517,33.906-14.517
		l1.152,0.016c16.344,0.293,28.768,7.97,40.204,24.785c4.738,7.084,12.248,11.436,20.099,11.643l0.412,0.016l0.405-0.016
		c7.851-0.207,15.362-4.558,20.021-11.534c11.515-16.924,23.938-24.6,40.317-24.893l1.117-0.016
		c30.582,0,49.591,24.972,49.591,65.165C326.297,216.831,302.773,250.964,256.334,282.59z"/>
	<path fill="#6D6D6D" d="M145.5,197.494c-0.983-4.034-1.563-7.64-1.792-10.81c-0.227-3.195-0.097-5.937,0.335-8.2
		c0.607-3.266-1.548-6.414-4.821-7.028c-3.267-0.612-6.415,1.55-7.017,4.811c-0.648,3.503-0.802,7.254-0.515,11.271
		c0.278,3.992,0.997,8.23,2.098,12.799c2.068,8.514,6.255,16.028,11.658,22.563c2.12,2.551,5.916,2.925,8.472,0.807
		c2.567-2.126,2.922-5.921,0.818-8.488C150.269,209.808,147.064,203.94,145.5,197.494z"/>
	<path fill="#6D6D6D" d="M147.274,158.988c4.269,0,7.726-3.457,7.726-7.727c0-4.275-3.458-7.732-7.726-7.732
		c-4.275,0-7.731,3.457-7.731,7.732C139.543,155.532,143,158.988,147.274,158.988z"/>
</g>
</svg>
