<?xml version="1.0" encoding="utf-8"?>
<!-- Generator: Adobe Illustrator 16.0.0, SVG Export Plug-In . SVG Version: 6.00 Build 0)  -->
<!DOCTYPE svg PUBLIC "-//W3C//DTD SVG 1.1//EN" "http://www.w3.org/Graphics/SVG/1.1/DTD/svg11.dtd">
<svg version="1.1" id="_x32_" xmlns="http://www.w3.org/2000/svg" xmlns:xlink="http://www.w3.org/1999/xlink" x="0px" y="0px"
	 width="420px" height="420px" viewBox="0 0 420 420" enable-background="new 0 0 420 420" xml:space="preserve">
<g>
	<path fill="#6D6D6D" d="M341.242,142.519c-6.348-8.664-16.16-14.138-26.871-14.986l-175.811-13.93l-1.724-9.774
		c-2.891-16.339-15.889-28.99-32.302-31.418l-21.94-3.258c-5.233-0.77-10.1,2.847-10.877,8.071
		c-0.776,5.237,2.839,10.106,8.07,10.881v-0.004l21.947,3.252c8.242,1.221,14.793,7.591,16.243,15.808l29.737,168.554
		c2.792,15.819,16.531,27.344,32.597,27.35h122.213c5.29,0,9.58-4.29,9.58-9.575c0-5.289-4.29-9.579-9.58-9.579H180.312
		c-6.762,0.006-12.561-4.864-13.735-11.525l-2.754-15.606H298.65c17.195,0,32.124-11.865,35.989-28.634l12.806-55.48
		c0.634-2.754,0.943-5.538,0.943-8.306C348.392,156.573,345.93,148.906,341.242,142.519z M245.069,138.055l39.898,3.165v99.599
		h-39.898V138.055z M232.301,240.818h-39.9V133.882l39.9,3.165V240.818z M141.426,129.843l38.208,3.026v107.948h-18.628
		L141.426,129.843z M331.889,169.074l-12.797,55.486c-2.196,9.514-10.672,16.258-20.44,16.258h-0.911v-98.587l15.374,1.216
		c6.083,0.477,11.659,3.588,15.256,8.504c2.663,3.632,4.063,7.981,4.063,12.404C332.432,165.925,332.253,167.499,331.889,169.074z"
		/>
	<path fill="#6D6D6D" d="M187.618,316.905c-9.401,0-17.018,7.627-17.018,17.027c0,9.399,7.616,17.018,17.018,17.018
		c9.403,0,17.028-7.619,17.028-17.018C204.646,324.531,197.02,316.905,187.618,316.905z"/>
	<path fill="#6D6D6D" d="M279.122,316.905c-9.402,0-17.02,7.627-17.02,17.027c0,9.399,7.62,17.018,17.02,17.018
		s17.023-7.619,17.023-17.018C296.146,324.531,288.521,316.905,279.122,316.905z"/>
</g>
</svg>
