<?xml version="1.0" encoding="utf-8"?>
<!-- Generator: Adobe Illustrator 16.0.0, SVG Export Plug-In . SVG Version: 6.00 Build 0)  -->
<!DOCTYPE svg PUBLIC "-//W3C//DTD SVG 1.1//EN" "http://www.w3.org/Graphics/SVG/1.1/DTD/svg11.dtd">
<svg version="1.1" id="_x32_" xmlns="http://www.w3.org/2000/svg" xmlns:xlink="http://www.w3.org/1999/xlink" x="0px" y="0px"
	 width="420px" height="420px" viewBox="0 0 420 420" enable-background="new 0 0 420 420" xml:space="preserve">
<g>
	<path fill="#6D6D6D" d="M333.223,205.217c-25.717-50.361-72.937-81.643-123.223-81.643c-50.271,0-97.491,31.281-123.223,81.641
		L84.334,210l2.442,4.782c25.732,50.364,72.953,81.645,123.223,81.645c50.287,0,97.506-31.28,123.223-81.642l2.443-4.782
		L333.223,205.217z M210,275.403c-41.395,0-79.165-24.343-101.953-65.402c22.788-41.062,60.558-65.402,101.953-65.402
		c41.41,0,79.179,24.342,101.955,65.402C289.179,251.061,251.409,275.403,210,275.403z"/>
	<path fill="#6D6D6D" d="M210,159.776c-28.058,0-50.806,22.749-50.806,50.806c0,28.059,22.748,50.806,50.806,50.806
		c28.057,0,50.806-22.748,50.806-50.806C260.806,182.522,238.057,159.776,210,159.776z M210,232.947
		c-12.338,0-22.363-10.026-22.363-22.364c0-2.772,0.574-5.386,1.484-7.83l18.58,7.249l-7.849-19.252
		c3.059-1.558,6.473-2.532,10.148-2.532c12.339,0,22.364,10.026,22.364,22.364C232.365,222.92,222.339,232.947,210,232.947z"/>
</g>
</svg>
