<?xml version="1.0" encoding="utf-8"?>
<!-- Generator: Adobe Illustrator 16.0.0, SVG Export Plug-In . SVG Version: 6.00 Build 0)  -->
<!DOCTYPE svg PUBLIC "-//W3C//DTD SVG 1.1//EN" "http://www.w3.org/Graphics/SVG/1.1/DTD/svg11.dtd">
<svg version="1.1" id="_x32_" xmlns="http://www.w3.org/2000/svg" xmlns:xlink="http://www.w3.org/1999/xlink" x="0px" y="0px"
	 width="512px" height="512px" viewBox="0 0 512 512" enable-background="new 0 0 512 512" xml:space="preserve">
<g>
	<g>
		<path d="M256,51.702l57.19,137.964c2.158,5.208,7.056,8.766,12.676,9.209l148.874,11.759l-113.546,97.008
			c-4.287,3.662-6.158,9.42-4.843,14.903l34.839,145.229l-127.355-78.003c-2.404-1.473-5.12-2.209-7.835-2.209
			c-2.715,0-5.431,0.736-7.834,2.209L120.81,467.775l34.84-145.229c1.315-5.483-0.556-11.241-4.843-14.903L37.26,210.635
			l148.875-11.759c5.62-0.444,10.517-4.001,12.675-9.209L256,51.702 M256,12.531l-71.047,171.392L0,198.531l141.063,120.517
			L97.781,499.469L256,402.563l158.219,96.906l-43.281-180.422L512,198.531l-184.953-14.608L256,12.531L256,12.531z"/>
	</g>
</g>
</svg>
